<?xml version="1.0" standalone="no"?>
<!DOCTYPE svg PUBLIC "-//W3C//DTD SVG 20010904//EN"
 "http://www.w3.org/TR/2001/REC-SVG-20010904/DTD/svg10.dtd">
<svg version="1.0" xmlns="http://www.w3.org/2000/svg"
 width="1200.000000pt" height="1200.000000pt" viewBox="0 0 1200.000000 1200.000000"
 preserveAspectRatio="xMidYMid meet">
<metadata>
Created by potrace 1.14, written by Peter Selinger 2001-2017
</metadata>
<g transform="translate(0.000000,1200.000000) scale(0.100000,-0.100000)"
fill="#000000" stroke="none">
<path d="M5710 10269 c-176 -15 -233 -21 -253 -24 -12 -2 -40 -6 -62 -9 -77
-11 -210 -37 -270 -53 -33 -8 -67 -16 -76 -18 -9 -2 -64 -19 -122 -39 -268
-89 -439 -217 -477 -356 -8 -28 -13 -131 -14 -274 l-1 -229 -170 -59 -170 -58
-60 16 c-101 27 -325 73 -410 84 -44 6 -91 13 -105 15 -111 18 -636 26 -815
12 -127 -10 -281 -29 -341 -41 -12 -2 -39 -7 -60 -11 -130 -20 -389 -99 -503
-152 -135 -63 -243 -153 -286 -240 l-30 -58 -2 -244 c-1 -134 -4 -246 -7 -248
-4 -5 -1009 -343 -1031 -347 -5 -1 -48 -15 -95 -31 -47 -16 -87 -30 -90 -30
-3 -1 -12 -4 -20 -8 -8 -3 -53 -18 -100 -33 -52 -17 -95 -38 -112 -54 l-27
-27 2 -2001 c2 -1990 2 -2002 22 -2022 17 -17 422 -158 845 -295 58 -18 436
-144 840 -280 404 -135 744 -248 755 -250 11 -3 85 -27 165 -55 80 -28 152
-52 160 -54 8 -2 501 -167 1095 -365 594 -199 1087 -363 1096 -365 9 -3 242
-80 517 -172 l501 -168 113 37 c62 20 266 87 453 150 187 63 513 172 725 242
212 70 448 149 525 175 77 26 178 60 225 75 47 15 168 55 270 90 102 34 221
74 265 88 44 14 161 53 260 87 99 34 187 63 195 65 8 2 89 29 180 60 91 31
201 68 245 82 44 14 157 52 250 83 94 32 208 70 255 85 47 15 155 51 240 80
85 29 265 89 400 134 135 45 288 95 340 113 52 17 201 67 330 110 129 44 267
89 305 100 39 11 82 27 97 34 15 8 29 14 30 13 10 -8 259 86 274 102 18 20 19
84 19 2026 l0 2005 -26 22 c-16 14 -276 105 -730 256 -387 129 -707 239 -710
244 -4 5 -7 106 -6 225 0 299 -17 350 -158 463 -120 98 -399 205 -640 247 -33
6 -76 13 -95 17 -38 7 -40 7 -115 17 -179 25 -294 31 -555 31 -209 0 -380 -7
-481 -19 -102 -13 -216 -31 -283 -45 -28 -6 -60 -12 -72 -14 -11 -2 -65 -16
-120 -30 l-99 -26 -170 58 -170 59 -1 234 c0 143 -5 250 -12 274 -34 116 -175
235 -374 314 -71 29 -284 94 -346 106 -65 13 -257 45 -291 49 -20 3 -61 7 -91
11 -30 3 -73 8 -95 11 -66 8 -565 10 -645 3z"/>
</g>
</svg>
